<svg width="384" height="256" viewBox="0 0 384 256" fill="none" xmlns="http://www.w3.org/2000/svg">
<path d="M309.796 15.9996C308.996 16.6996 308.096 17.4996 307.296 18.3996C294.596 31.9996 263.996 79.0996 263.996 81.4996C263.996 83.8996 230.096 175.6 230.096 175.6L233.896 212.8L256.296 245.7L262.196 246.8C262.196 246.8 298.696 218.6 321.296 209.4C341.996 201 355.696 199.2 362.696 191.6C367.396 186.6 363.096 181.9 353.096 179.4C350.296 178.7 342.996 177.5 335.196 178.5C337.396 165.3 336.596 49.0996 332.996 19.7996C332.596 16.3996 329.996 13.6996 326.496 13.7996L315.396 13.8996L309.796 15.9996Z" fill="url(#paint0_linear_2378_473)"/>
<path d="M171.796 135.1C174.096 117.8 170.196 50 168.396 22.6C167.996 16.6 172.696 11.6 178.696 11.6L314.396 9.5C319.796 9.5 324.296 13.7 324.696 19.1C326.296 41.1 328.096 94.2 327.096 137C325.696 193.9 305.196 194.6 302.596 194.9L283.396 193L162.796 176.5L171.796 135.1Z" fill="url(#paint1_linear_2378_473)"/>
<path d="M324.696 160L273.896 162.4C273.896 162.4 278.596 186.4 286.596 190.2C294.596 194 304.496 194.9 304.496 194.9C304.496 194.9 323.396 188.8 324.696 160Z" fill="url(#paint2_linear_2378_473)"/>
<path d="M276.796 192.599L268.896 169.999C268.896 169.999 270.696 156.799 270.696 156.399C270.696 155.899 277.496 145.599 277.896 145.499C278.296 145.399 281.996 142.399 284.596 141.299C287.196 140.099 293.496 137.399 300.996 141.199C308.396 144.999 304.996 159.999 302.896 162.399C300.796 164.799 293.396 174.199 294.296 179.499C295.196 184.799 299.396 194.899 306.396 194.099C302.796 195.499 295.696 194.199 295.696 194.199L276.796 192.599Z" fill="url(#paint3_linear_2378_473)"/>
<path d="M283.796 141.5C273.596 144.5 265.896 161.1 270.596 174.6C277.196 193.4 288.996 217 275.796 230.1C262.596 243.3 257.396 245.6 257.396 245.6L75.7959 216.5C75.7959 216.5 86.5959 211.2 94.5959 206.1C106.996 198.3 106.896 188.2 104.996 170.6C102.396 146.8 124.996 127.8 144.796 132.4C212.596 146.6 286.396 136.8 286.396 136.8C286.396 136.8 295.196 135.5 300.196 140.7C291.796 137.1 283.796 141.5 283.796 141.5Z" fill="url(#paint4_linear_2378_473)"/>
<path d="M324.696 16.8992L317.596 10.0992L312.896 9.19922L176.496 11.0992L170.396 15.5992L168.796 19.5992L169.996 48.0992H326.496L324.696 16.8992ZM189.896 39.5992C184.996 39.5992 180.996 35.5992 180.996 30.6992C180.996 25.7992 184.996 21.7992 189.896 21.7992C194.796 21.7992 198.796 25.7992 198.796 30.6992C198.796 35.5992 194.796 39.5992 189.896 39.5992ZM215.496 39.5992C210.596 39.5992 206.596 35.5992 206.596 30.6992C206.596 25.7992 210.596 21.7992 215.496 21.7992C220.396 21.7992 224.396 25.7992 224.396 30.6992C224.496 35.5992 220.496 39.5992 215.496 39.5992ZM241.196 39.5992C236.296 39.5992 232.296 35.5992 232.296 30.6992C232.296 25.7992 236.296 21.7992 241.196 21.7992C246.096 21.7992 250.096 25.7992 250.096 30.6992C250.096 35.5992 246.096 39.5992 241.196 39.5992Z" fill="url(#paint5_linear_2378_473)"/>
<path d="M298.796 190.1C294.196 185.1 291.796 176.6 301.096 165.2C313.296 150.1 300.496 134.4 286.396 136.7C286.396 136.7 212.496 146.6 144.796 132.3C124.996 127.7 102.396 146.8 104.996 170.5C106.896 188.2 106.996 198.3 94.5959 206C86.4959 211.2 75.7959 216.5 75.7959 216.5L257.396 245.7C257.396 245.7 262.596 243.3 275.796 230.2C288.996 217 277.196 193.5 270.596 174.7C265.896 161.2 275.296 143.8 286.196 141.5" stroke="black" stroke-width="2.5" stroke-miterlimit="10" stroke-linecap="round" stroke-linejoin="round"/>
<path d="M171.796 135.1C174.096 117.8 170.196 50 168.396 22.6C167.996 16.6 172.696 11.6 178.696 11.6L314.396 9.5C319.796 9.5 324.296 13.7 324.696 19.1C326.296 41.1 328.096 94.2 327.096 137C325.696 193.9 305.196 194.6 302.596 194.9L283.396 193" stroke="black" stroke-width="2.5" stroke-miterlimit="10" stroke-linecap="round" stroke-linejoin="round"/>
<path d="M170.796 48H305.396" stroke="black" stroke-width="1.6" stroke-miterlimit="10" stroke-linecap="round" stroke-linejoin="round"/>
<path d="M197.996 26.7992C198.496 27.8992 198.796 29.1992 198.796 30.5992C198.796 35.4992 194.796 39.4992 189.896 39.4992C184.996 39.4992 180.996 35.4992 180.996 30.5992C180.996 25.6992 184.996 21.6992 189.896 21.6992C191.696 21.6992 193.396 22.1992 194.796 23.1992" stroke="black" stroke-width="1.6" stroke-miterlimit="10" stroke-linecap="round" stroke-linejoin="round"/>
<path d="M223.596 26.7992C224.096 27.9992 224.396 29.1992 224.396 30.5992C224.396 35.4992 220.396 39.4992 215.496 39.4992C210.596 39.4992 206.596 35.4992 206.596 30.5992C206.596 25.6992 210.596 21.6992 215.496 21.6992C217.196 21.6992 218.796 22.1992 220.196 23.0992" stroke="black" stroke-width="1.6" stroke-miterlimit="10" stroke-linecap="round" stroke-linejoin="round"/>
<path d="M249.996 30.5992C249.996 35.4992 245.996 39.4992 241.096 39.4992C236.196 39.4992 232.196 35.4992 232.196 30.5992C232.196 25.6992 236.196 21.6992 241.096 21.6992C242.896 21.6992 244.596 22.2992 245.996 23.1992" stroke="black" stroke-width="1.6" stroke-miterlimit="10" stroke-linecap="round" stroke-linejoin="round"/>
<path d="M140.496 151.799C140.496 151.799 212.896 164.199 251.296 158.199" stroke="black" stroke-width="1.6" stroke-miterlimit="10" stroke-linecap="round" stroke-linejoin="round"/>
<path d="M132.296 173.6C132.296 173.6 218.796 184.5 247.696 183.8" stroke="black" stroke-width="1.6" stroke-miterlimit="10" stroke-linecap="round" stroke-linejoin="round"/>
<path d="M134.496 198.299C161.896 201.799 188.796 205.099 214.596 207.699" stroke="black" stroke-width="1.6" stroke-miterlimit="10" stroke-linecap="round" stroke-linejoin="round"/>
<path d="M125.296 198.4C126.29 198.4 127.096 197.639 127.096 196.7C127.096 195.761 126.29 195 125.296 195C124.302 195 123.496 195.761 123.496 196.7C123.496 197.639 124.302 198.4 125.296 198.4Z" fill="black"/>
<path d="M122.996 173.7C123.88 173.7 124.596 172.984 124.596 172.1C124.596 171.216 123.88 170.5 122.996 170.5C122.113 170.5 121.396 171.216 121.396 172.1C121.396 172.984 122.113 173.7 122.996 173.7Z" fill="black"/>
<path d="M130.935 150.148C131.067 149.33 130.378 148.539 129.397 148.38C128.416 148.222 127.513 148.756 127.381 149.574C127.249 150.392 127.937 151.183 128.919 151.342C129.9 151.5 130.803 150.966 130.935 150.148Z" fill="black"/>
<path d="M225.061 73.7782L224.341 74.4977C221.032 77.8073 215.276 74.9293 211.966 78.8146C210.095 81.117 210.383 84.5705 211.822 87.0168C213.261 89.3191 215.851 91.3337 215.851 94.2117C215.851 97.3774 212.686 99.392 211.247 102.126C209.376 106.011 211.822 111.192 215.995 112.199C218.729 112.775 221.895 111.911 224.054 113.638C225.493 114.789 226.068 116.66 226.212 118.53C226.356 120.401 226.356 122.272 227.075 123.999C228.371 127.308 232.544 129.035 235.853 127.884C239.307 126.589 241.609 122.56 245.207 122.847C248.228 122.991 250.099 126.157 252.833 127.452C256.431 129.179 261.323 127.308 262.762 123.567C263.913 120.545 263.05 116.804 265.208 114.501C267.655 112.055 271.828 113.062 275.137 111.767C278.591 110.472 280.318 106.011 278.879 102.702C277.584 99.6798 274.13 97.5213 274.13 94.2117C274.13 91.4776 276.72 89.463 278.159 87.0168C280.03 83.5632 279.167 78.5268 275.569 76.8C272.403 75.361 268.086 76.6561 265.496 74.2098C263.05 71.9075 264.057 67.8783 262.762 64.8565C261.467 61.4029 257.006 59.3884 253.553 60.8273C250.099 62.1224 247.653 66.1516 243.911 65.7199C241.034 65.4321 239.307 62.5541 236.861 61.1151C231.824 58.2372 226.212 61.9785 226.068 67.4466C226.5 69.6051 227.075 72.0514 225.061 73.7782Z" fill="url(#paint6_linear_2378_473)"/>
<path d="M231.104 96.5141L242.472 105.148L261.466 82.8438" stroke="white" stroke-width="8" stroke-miterlimit="10" stroke-linecap="round" stroke-linejoin="round"/>
<defs>
<linearGradient id="paint0_linear_2378_473" x1="303.065" y1="130.539" x2="364.677" y2="133.139" gradientUnits="userSpaceOnUse">
<stop stop-color="#CFABF4"/>
<stop offset="0.4923" stop-color="#CCA3F4" stop-opacity="0.7046"/>
<stop offset="1" stop-color="#C895F4" stop-opacity="0.4"/>
</linearGradient>
<linearGradient id="paint1_linear_2378_473" x1="233.123" y1="20.1494" x2="255.24" y2="181.561" gradientUnits="userSpaceOnUse">
<stop offset="0.2124" stop-color="#FFFEFD"/>
<stop offset="0.4758" stop-color="#FFFBF5"/>
<stop offset="0.8903" stop-color="#FFF3DE"/>
<stop offset="1" stop-color="#FFF0D7"/>
</linearGradient>
<linearGradient id="paint2_linear_2378_473" x1="299.297" y1="162.673" x2="299.767" y2="196.555" gradientUnits="userSpaceOnUse">
<stop stop-color="#EDCFF7" stop-opacity="0.5"/>
<stop offset="0.8865" stop-color="#E4BFF1"/>
</linearGradient>
<linearGradient id="paint3_linear_2378_473" x1="286.629" y1="194.759" x2="290.916" y2="139.75" gradientUnits="userSpaceOnUse">
<stop stop-color="#E3C0F1"/>
<stop offset="0.368221" stop-color="#EBD0F3"/>
<stop offset="0.595933" stop-color="#EFD7F5"/>
<stop offset="0.8257" stop-color="#E7CAF3"/>
<stop offset="0.9658" stop-color="#E2BEF2"/>
</linearGradient>
<linearGradient id="paint4_linear_2378_473" x1="193.456" y1="136.307" x2="180.714" y2="233.52" gradientUnits="userSpaceOnUse">
<stop offset="0.0140789" stop-color="#FFFEFD"/>
<stop offset="0.3059" stop-color="#FFFEFD"/>
<stop offset="0.487" stop-color="#FFFBF7"/>
<stop offset="0.6243" stop-color="#FFF8EE"/>
<stop offset="0.7573" stop-color="#FFF5E4"/>
<stop offset="0.906" stop-color="#FFF3DF"/>
</linearGradient>
<linearGradient id="paint5_linear_2378_473" x1="168.585" y1="27.671" x2="337.997" y2="29.7887" gradientUnits="userSpaceOnUse">
<stop stop-color="#E9BEFF"/>
<stop offset="0.535" stop-color="#EAC2FF" stop-opacity="0.8395"/>
<stop offset="1" stop-color="#EECCFF" stop-opacity="0.7"/>
</linearGradient>
<linearGradient id="paint6_linear_2378_473" x1="220.508" y1="65.5699" x2="259.41" y2="128.24" gradientUnits="userSpaceOnUse">
<stop stop-color="#FFCC74" stop-opacity="0.5"/>
<stop offset="0.780648" stop-color="#FFCC74"/>
</linearGradient>
</defs>
</svg>
